<svg width="415" height="247" viewBox="0 0 415 247" fill="none" xmlns="http://www.w3.org/2000/svg">
<g opacity="0.49">
<path d="M125.43 70.0003C130.097 65.847 136.14 63.127 143.56 61.8403C150.98 60.5537 158.823 61.3703 167.09 64.2903C175.33 67.2103 182.867 72.4837 189.7 80.1103C196.053 87.2037 200.347 94.6337 202.58 102.4C204.808 109.582 205.012 117.24 203.17 124.53C201.42 131.288 197.695 137.371 192.47 142C188.752 145.486 184.216 147.979 179.28 149.25C174.873 150.348 170.324 150.766 165.79 150.49C161.437 150.21 153.883 149.467 143.13 148.26C140.613 147.986 138.082 147.846 135.55 147.84C133.816 147.829 132.087 148.027 130.4 148.43C129.062 148.771 127.762 149.247 126.52 149.85C125.32 150.44 123.29 151.53 120.41 153.14C114.49 156.76 109.343 156.127 104.97 151.24C103.884 150.085 103.037 148.725 102.479 147.241C101.921 145.756 101.663 144.175 101.72 142.59C101.833 139.37 103.527 136.294 106.8 133.36C113.467 126.971 122.398 123.49 131.63 123.68C136.886 123.856 142.129 124.296 147.34 125C152.88 125.67 156.97 126.09 159.61 126.23C162.231 126.38 164.86 126.161 167.42 125.58C169.974 125.014 172.335 123.791 174.27 122.03C176.163 120.387 177.679 118.354 178.715 116.071C179.75 113.787 180.281 111.307 180.27 108.8C180.35 103.467 178.35 98.5103 174.27 93.9303C169.45 88.5503 164.547 85.807 159.56 85.7003C154.573 85.5936 148.637 87.027 141.75 90.0003C134.743 93.287 129.16 92.6203 125 88.0003C123.816 86.7312 122.91 85.2289 122.34 83.5896C121.77 81.9503 121.549 80.2101 121.69 78.4803C121.72 76.8895 122.066 75.3205 122.708 73.8647C123.35 72.4089 124.276 71.0953 125.43 70.0003ZM77.09 177.69C74.4769 174.851 73.0183 171.139 73 167.28C72.94 163.334 74.6433 159.804 78.11 156.69C79.5366 155.371 81.2215 154.362 83.0581 153.726C84.8946 153.091 86.843 152.844 88.78 153C90.7419 153.119 92.6598 153.632 94.4191 154.508C96.1785 155.384 97.7433 156.606 99.02 158.1C100.333 159.522 101.347 161.192 102.001 163.013C102.656 164.833 102.938 166.767 102.831 168.699C102.723 170.631 102.229 172.521 101.377 174.258C100.525 175.995 99.3321 177.543 97.87 178.81C94.45 181.87 90.7833 183.177 86.87 182.73C83.0893 182.35 79.594 180.548 77.09 177.69Z" fill="#407BFF"/>
<g opacity="0.5">
<path d="M214.85 137.051C216.254 133.714 218.582 130.848 221.56 128.791C225.06 126.297 229.146 124.754 233.42 124.311C238.399 123.775 243.433 124.511 248.05 126.451C252.411 128.064 256.35 130.645 259.57 134.001C262.36 136.904 264.298 140.519 265.17 144.451C265.974 148.125 265.661 151.956 264.27 155.451C263.326 158.014 261.751 160.298 259.69 162.091C257.844 163.677 255.767 164.972 253.53 165.931C251.383 166.844 247.587 168.304 242.14 170.311C240.866 170.778 239.621 171.319 238.41 171.931C237.577 172.339 236.798 172.85 236.09 173.451C235.528 173.932 235.018 174.471 234.57 175.061C234.14 175.631 233.43 176.641 232.44 178.061C230.44 181.221 227.823 182.154 224.59 180.861C223.792 180.568 223.059 180.121 222.435 179.544C221.81 178.967 221.305 178.273 220.95 177.501C220.593 176.597 220.429 175.628 220.466 174.657C220.504 173.686 220.744 172.734 221.17 171.861C222.828 167.201 226.266 163.389 230.73 161.261C233.285 160.07 235.899 159.009 238.56 158.081C241.37 157.081 243.43 156.291 244.73 155.731C246.02 155.171 247.225 154.434 248.31 153.541C249.397 152.653 250.234 151.499 250.74 150.191C251.252 148.95 251.49 147.613 251.436 146.272C251.383 144.93 251.039 143.617 250.43 142.421C249.092 139.788 246.788 137.775 244 136.801C240.4 135.381 237.4 135.244 235 136.391C232.086 137.941 229.536 140.096 227.52 142.711C224.947 145.971 222.107 146.971 219 145.711C218.129 145.385 217.335 144.881 216.669 144.232C216.003 143.583 215.479 142.803 215.13 141.941C214.761 141.185 214.547 140.363 214.499 139.524C214.451 138.684 214.57 137.843 214.85 137.051ZM217.58 200.251C215.648 199.518 214.058 198.092 213.12 196.251C212.64 195.282 212.38 194.22 212.359 193.139C212.339 192.058 212.557 190.987 213 190.001C213.36 189.022 213.921 188.13 214.646 187.381C215.371 186.632 216.244 186.043 217.21 185.651C218.179 185.237 219.222 185.024 220.275 185.024C221.328 185.024 222.371 185.237 223.34 185.651C224.31 186.016 225.196 186.572 225.947 187.286C226.698 188 227.298 188.858 227.711 189.808C228.124 190.759 228.342 191.782 228.352 192.818C228.363 193.855 228.165 194.882 227.77 195.841C227.424 196.867 226.856 197.805 226.106 198.586C225.356 199.368 224.442 199.973 223.43 200.361C221.536 201.064 219.446 201.025 217.58 200.251Z" fill="#407BFF"/>
</g>
<g opacity="0.5">
<path d="M40.5796 34.7559C43.3387 32.4128 46.7096 30.9065 50.2958 30.4145C54.5441 29.7696 58.8871 30.2369 62.9009 31.7708C67.5858 33.5404 71.745 36.4698 74.9894 40.2846C78.1527 43.6932 80.502 47.7746 81.8606 52.222C83.0397 56.0723 83.1365 60.1729 82.1402 64.0746C81.1991 67.7162 79.19 70.9931 76.3715 73.4837C74.3723 75.3452 71.9356 76.672 69.2872 77.3411C66.9242 77.9234 64.486 78.1411 62.0572 77.9868C59.7294 77.8328 55.6825 77.4217 49.9165 76.7535C48.5691 76.5954 47.2136 76.5159 45.8569 76.5152C44.9289 76.5038 44.003 76.6076 43.1006 76.8242C42.3815 76.9998 41.6832 77.2513 41.0175 77.5747C40.3765 77.8892 39.287 78.4699 37.7626 79.2901C34.5515 81.207 31.7952 80.8586 29.4939 78.2449C28.9137 77.6235 28.4621 76.8936 28.165 76.0971C27.8679 75.3005 27.7312 74.4531 27.7627 73.6036C27.8524 72.636 28.1425 71.6976 28.6146 70.8483C29.0867 69.9989 29.7306 69.2572 30.5051 68.6703C34.0878 65.2608 38.8763 63.4114 43.8206 63.5273C46.6379 63.6188 49.4489 63.8515 52.2429 64.2244C55.2017 64.6006 57.3965 64.8256 58.8093 64.9128C60.2126 64.9956 61.6206 64.8818 62.9924 64.5747C64.3626 64.2737 65.6309 63.6216 66.673 62.6824C67.6901 61.8064 68.5055 60.7207 69.0632 59.4997C69.6209 58.2787 69.9077 56.9515 69.9039 55.6092C69.898 52.6561 68.7513 49.8194 66.7033 47.6918C64.132 44.7996 61.5168 43.3234 58.8576 43.2631C55.5571 43.3315 52.309 44.103 49.3301 45.5259C45.5623 47.2732 42.5767 46.8835 40.3734 44.3567C39.7432 43.6727 39.2621 42.8652 38.9606 41.9853C38.6591 41.1054 38.5438 40.1725 38.622 39.2457C38.6343 38.4049 38.8137 37.575 39.1497 36.8042C39.4858 36.0333 39.9719 35.3371 40.5796 34.7559ZM14.4858 92.3824C13.0922 90.8565 12.3171 88.8662 12.3118 86.7998C12.3204 85.719 12.5683 84.6535 13.0376 83.6799C13.5069 82.7063 14.186 81.8487 15.0261 81.1687C15.7892 80.4586 16.6922 79.9156 17.6772 79.5745C18.6622 79.2333 19.7075 79.1016 20.7464 79.1876C21.7976 79.2561 22.8241 79.5365 23.7642 80.0121C24.7042 80.4877 25.5383 81.1485 26.2163 81.9548C26.9168 82.7184 27.4569 83.6149 27.8044 84.5911C28.152 85.5674 28.3 86.6034 28.2396 87.6379C28.1793 88.6724 27.9118 89.6843 27.4531 90.6135C26.9944 91.5427 26.3538 92.3703 25.5692 93.0472C24.7973 93.8073 23.867 94.3875 22.8448 94.746C21.8226 95.1046 20.7337 95.2327 19.6561 95.1213C17.6487 94.8939 15.8016 93.9154 14.4858 92.3824Z" fill="#407BFF"/>
</g>
<g opacity="0.1">
<path d="M282.11 131.159C281.206 129.736 280.724 128.085 280.72 126.399C280.687 124.401 281.176 122.429 282.14 120.679C283.253 118.64 284.867 116.919 286.83 115.679C288.601 114.432 290.632 113.605 292.77 113.259C294.622 112.959 296.521 113.173 298.26 113.879C299.888 114.538 301.281 115.67 302.26 117.129C302.995 118.168 303.455 119.375 303.6 120.639C303.715 121.764 303.661 122.9 303.44 124.009C303.22 125.082 302.773 126.922 302.1 129.529C301.948 130.142 301.828 130.763 301.74 131.389C301.624 132.159 301.685 132.946 301.92 133.689C302.03 134.009 302.23 134.549 302.53 135.309C302.713 135.62 302.831 135.965 302.88 136.322C302.928 136.68 302.905 137.044 302.812 137.393C302.719 137.741 302.558 138.068 302.338 138.354C302.118 138.64 301.843 138.88 301.53 139.059C300.879 139.516 300.073 139.696 299.29 139.559C298.848 139.459 298.432 139.268 298.069 138.998C297.705 138.727 297.402 138.384 297.18 137.989C296.476 136.991 295.979 135.862 295.72 134.669C295.513 133.634 295.489 132.572 295.65 131.529C295.866 130.235 296.15 128.953 296.5 127.689C296.86 126.339 297.1 125.349 297.23 124.689C297.356 124.03 297.393 123.357 297.34 122.689C297.283 122.037 297.059 121.41 296.69 120.869C296.349 120.346 295.899 119.903 295.371 119.57C294.843 119.237 294.249 119.022 293.63 118.939C292.256 118.752 290.863 119.111 289.75 119.939C289.119 120.29 288.567 120.768 288.13 121.342C287.692 121.917 287.379 122.577 287.21 123.279C287.036 124.807 287.19 126.355 287.66 127.819C288.23 129.669 287.86 131.019 286.57 131.889C286.216 132.136 285.815 132.307 285.391 132.391C284.968 132.475 284.532 132.471 284.11 132.379C283.712 132.32 283.33 132.182 282.986 131.972C282.642 131.763 282.345 131.486 282.11 131.159ZM307.06 146.819C306.267 147.361 305.303 147.592 304.35 147.469C303.847 147.397 303.367 147.214 302.945 146.932C302.522 146.649 302.169 146.276 301.91 145.839C301.631 145.443 301.437 144.993 301.34 144.518C301.244 144.043 301.247 143.553 301.35 143.079C301.447 142.598 301.639 142.141 301.916 141.736C302.193 141.33 302.548 140.985 302.96 140.719C303.356 140.443 303.804 140.25 304.277 140.152C304.749 140.054 305.237 140.053 305.71 140.149C306.185 140.237 306.638 140.421 307.038 140.691C307.439 140.961 307.78 141.311 308.04 141.719C308.342 142.123 308.551 142.589 308.653 143.083C308.755 143.578 308.747 144.088 308.63 144.579C308.406 145.496 307.845 146.295 307.06 146.819Z" fill="#407BFF"/>
</g>
</g>
</svg>
